/* XPM */
static char *OTE5YWEwMWRhNTZhOWNkNDE2ODkwNGViYmU3NTg3NzkrJTI4MSUyOS4_[] = {
/* columns rows colors chars-per-pixel */
"50 50 256 2 ",
"   c #030104",
".  c #0B0103",
"X  c #04020B",
"o  c #0B030B",
"O  c #0B0B0D",
"+  c #060A09",
"@  c #140103",
"#  c #1C0001",
"$  c #13040D",
"%  c #17080A",
"&  c #030313",
"*  c #0C0313",
"=  c #0C0A12",
"-  c #070A1A",
";  c #140513",
":  c #130C14",
">  c #1A0D15",
",  c #130C1C",
"<  c #1B0C1A",
"1  c #1A0417",
"2  c #0C1213",
"3  c #0C171A",
"4  c #1C1216",
"5  c #15131B",
"6  c #1B141B",
"7  c #171619",
"8  c #101208",
"9  c #280202",
"0  c #360506",
"q  c #371304",
"w  c #260C19",
"e  c #360C14",
"r  c #22141D",
"t  c #25171C",
"y  c #36161C",
"u  c #030E23",
"i  c #170E23",
"p  c #0E1323",
"a  c #0A1629",
"s  c #141321",
"d  c #1C1524",
"f  c #1D1C22",
"g  c #13192C",
"h  c #19192A",
"j  c #191C34",
"k  c #0D1331",
"l  c #270C24",
"z  c #231523",
"x  c #241B24",
"c  c #291D25",
"v  c #231B2A",
"b  c #2C1C2B",
"n  c #281428",
"m  c #321C2C",
"M  c #351625",
"N  c #2B1D32",
"B  c #261C36",
"V  c #331C33",
"C  c #331A37",
"Z  c #15232B",
"A  c #1C2333",
"S  c #192839",
"D  c #17353E",
"F  c #0B2230",
"G  c #25232B",
"H  c #2B222C",
"J  c #272326",
"K  c #32242C",
"L  c #3A262B",
"P  c #232433",
"I  c #2C2234",
"U  c #26253A",
"Y  c #2D243B",
"T  c #242B3C",
"R  c #2D2B3C",
"E  c #2A2A33",
"W  c #322333",
"Q  c #342B34",
"!  c #33253B",
"~  c #342B3B",
"^  c #3B2C3C",
"/  c #3A2935",
"(  c #29333B",
")  c #3B343C",
"_  c #373239",
"`  c #4A0B04",
"'  c #5A1707",
"]  c #5C1E1A",
"[  c #4E110D",
"{  c #651A06",
"}  c #6F1910",
"|  c #462600",
" . c #50300F",
".. c #762414",
"X. c #6F230E",
"o. c #4A1B28",
"O. c #531D29",
"+. c #4C212A",
"@. c #57262A",
"#. c #4B2936",
"$. c #44343C",
"%. c #582B34",
"&. c #662829",
"*. c #6C3436",
"=. c #631B26",
"-. c #7D4B34",
";. c #674B01",
":. c #1C2B44",
">. c #173649",
",. c #2D2C43",
"<. c #282A45",
"1. c #342B43",
"2. c #3A2D44",
"3. c #312D4A",
"4. c #3B2F4B",
"5. c #2D334B",
"6. c #2B3B4A",
"7. c #283747",
"8. c #3C3244",
"9. c #33334B",
"0. c #3B334C",
"q. c #32394D",
"w. c #3D3A4C",
"e. c #383744",
"r. c #2B3754",
"t. c #353C54",
"y. c #3B3B54",
"u. c #343C5B",
"i. c #3B3C5B",
"p. c #373454",
"a. c #363D62",
"s. c #423C44",
"d. c #423C4A",
"f. c #453748",
"g. c #413C52",
"h. c #423855",
"j. c #4F334A",
"k. c #633547",
"l. c #533C61",
"z. c #3A454C",
"x. c #294457",
"c. c #33435C",
"v. c #3C415C",
"b. c #394858",
"n. c #3A545E",
"m. c #28434C",
"M. c #2D4A64",
"N. c #334463",
"B. c #3C4364",
"V. c #3E4C65",
"C. c #354867",
"Z. c #3C5A6D",
"A. c #3A5567",
"S. c #3B5974",
"D. c #2F516A",
"F. c #3B6477",
"G. c #3A636D",
"H. c #1B4959",
"J. c #47434A",
"K. c #524A4E",
"L. c #4B4552",
"P. c #484958",
"I. c #564C58",
"U. c #4A545C",
"Y. c #5C535C",
"T. c #575459",
"R. c #61545D",
"E. c #6D4453",
"W. c #454967",
"Q. c #534867",
"!. c #445364",
"~. c #485569",
"^. c #595968",
"/. c #424E72",
"(. c #475A75",
"). c #575977",
"_. c #5E4E73",
"`. c #665D68",
"'. c #65506D",
"]. c #5D6364",
"[. c #5B656B",
"{. c #44637B",
"}. c #496578",
"|. c #566577",
" X c #4B757D",
".X c #556C75",
"XX c #666766",
"oX c #656865",
"OX c #66666A",
"+X c #6A656A",
"@X c #636A6B",
"#X c #6C6A6D",
"$X c #696667",
"%X c #73656D",
"&X c #636572",
"*X c #6D6B72",
"=X c #676876",
"-X c #726C73",
";X c #756B76",
":X c #6E7173",
">X c #727374",
",X c #6B706D",
"<X c #5B625B",
"1X c #963516",
"2X c #8D2D0A",
"3X c #A63A16",
"4X c #832926",
"5X c #8B3931",
"6X c #9D2F13",
"7X c #AA4917",
"8X c #B44618",
"9X c #B34B0A",
"0X c #B76B18",
"qX c #91482F",
"wX c #A64927",
"eX c #B95525",
"rX c #B1522F",
"tX c #B26D36",
"yX c #C7501B",
"uX c #CC6918",
"iX c #D5711C",
"pX c #C55727",
"aX c #D65B28",
"sX c #C95B34",
"dX c #D66B28",
"fX c #D1732D",
"gX c #E87533",
"hX c #A67653",
"jX c #A88736",
"kX c #D1842C",
"lX c #E58539",
"zX c #AF8F4E",
"xX c #BDB75F",
"cX c #D3984B",
"vX c #CFAF56",
"bX c #ECAC54",
"nX c #F3AC6B",
"mX c #DF9A56",
"MX c #F5CD75",
"NX c #EDC35D",
"BX c #3C6C80",
"VX c #496A84",
"CX c #576882",
"ZX c #4C7788",
"AX c #577989",
"SX c #587892",
"DX c #4B7790",
"FX c #647788",
"GX c #68758C",
"HX c #665A80",
"JX c #58838D",
"KX c #5B839A",
"LX c #4D848C",
"PX c #688493",
"IX c #6584A1",
"UX c #E2B780",
/* pixels */
"+X+X>X[..X X.X.XOX*X;X+X=X*X[..X&X;X=X%X#X%X%X;X%X%X$X>XoX,X@X:X%X;X%X%X-X$X#X:X*X=X;X;X-X#XT.:XoXXX",
";X`.@X~.!.n.!.~.~.P.f.~ P.=X|.U.L.L.f.8.$.Q K K t t J J J J Z E ! $.^ ) ) ) _ s.f.8.w.2.z.e.z.oXXXXX",
"%X`.^.(.n.x.c.b.b.P.e.B U P.|.P.! $./ Q K 7 + + 8   : % > $ 4 w l z r z K H H Q ! ! ! I I H ) #XXX$X",
"OX&X|..XZ.A.D.c.t.Q.P.w.j P U.b.W K b c 7     + 8 8 7 r r # w M M n M m Q _ ~ 8.2.1.2.1.! I _ OX$XoX",
"[.&X~..X}.S.M.a.B.a.p.h.E g 7.( / v 5 o     + 3 3 3 = 6 $ 1 w M V V V V / ^ ! 1.2.4.4.4.2.C ! `.$X$X",
"@X[.6.!.CXS.C.V.a.3.,.0.,.g Z ( Z 5   X 2 2 + 2 7 7 = 6 $ z w n n V M m ! ^ ! 1.4.p.h.h.p.2.f.=X@X$X",
"[.@XS :.CXVXVXB.r.3.1.,.R Z p A .     O 7 7 : o 7 6 : * ; z n z n C V N ^ f.f.p.3.p.i.p.0.2.y.%X$X$X",
"<XPX<.u /.HXVXa.p.3.1.v I H X     7 7 5 7 > > < r r w X , d v , V ! V C 2.f.9.3.r.a.W.a.y.9.g.`.$X@X",
"<X,XT.3 t.).3.u.<.B N ! x o . o $ > r w w $ 1 1 z 1 o * < i d v n Y ! W 0.0.T u.r.N.C.V.v.,.h.=X#X$X",
"oX,XP.f P p.3.3.C N H c > . . : < < l z 1 X o * * * = : , s h P h I ! N ~ 0.5.V.C.C.M.N.c.9.h.&XOX@X",
"oXoXK.( d B h.1.! b r . . @ > 4 < * X & - Z m.n.7.m.m.D F 3 - * , , v d I e.q.c.S.(.Z.D.C.q.g.`.OXXX",
"<XoXT.s.v v 8./ H 6 . . . 4 r : * , a Z m.Z. XLXZX X}.G.n.b.<.s i o * * i R 5.r.D.VXVX{.W.7.g.&X+X$X",
"OXOXXXd.I N d z > o   . 4 t > * h A 7.A.ZXJXLXLXLXLXZX}.}.|.P.7.~ x 6 o X s <.c.M.S.VX}.~.6.d.+X+X@X",
"&X*X^.d.8./ < : . .   . + + : s 7.7.n.AXGXAXZXAXAXJXAX|.[.).^.L.) Q ^ c * X p c.{.{.F.{.!.q.w.`.$X$X",
"&X=X!.w.8.! c ;             , P q.~.CXFXCX(.u.r.5.p.p.4.2.2.2.^ W / $./ z X & S {.Z.Z.{.A.R 2.`.+XXX",
"&X=Xd.8.I v Q       + O 2 5 d G 9.).CXh.B 3.4.Y C C M o.o.O.+.+. .y M m N ; X D 6.H.M.Z.b.j / %X+XXX",
"+X;Xd.H Q H >   X + 2 f 5 6 , ^ W.y.! f.s.t W 1 l 9 ` ' { ..{ { { X.[ l 1 & + Z D A.F.KXA.7.R +X$X@X",
"XX;Xs.b W z o   = 5 f   P.z d i h.8.j.M 9 @ # 9 +.qXtX7X3X3X7X7X2XX.%.l.h.h 2 Z U.JXKXKXM.:._ $X$XXX",
"+X-XJ.K H > o o = h = h I.H 1 1 $.#.0 0 ' [ @ 9  .vX0XfXaXaX3XpXwXX.O.'._.j - ( JXJXKXKXZ.6.J.-X+X$X",
"+X#XJ.c 4 o o = = 2   T.e.z : m #.0 ` } ' { 9 @ zXMXkXiXaXaX8XsXrX..O.h.HXB i U.PX{.BXZX~.T _ R.+X$X",
"OXOXs.6 . X . = = X = T.L.z b L e 0 2X2X2XrX .8 xXvXcXlXlXaXyX3XwX] j.Q.).3.Z ( }.G.S.S.V.,.s.#XOXXX",
"OXOXs.5 X   : : = 5 = d.`.j.n M q { X.2X6XnXMX8 8 9 ;.nXgXgXgXsXwX` j._.B.0.E - D H.D.M.j v e.*XXXXX",
"@X#XJ.7 X $ f 5 6 Z = L.L.Y.1 w 0 qX2X6XeXcXMX;.+ . q mXkXiXdXeX5XO.l.HXi.h.T Z G.ZXAXCX1.z R @X$XXX",
"OX#XJ.7 o 6 x : f = = I./ / 1 e ' ' 3XeXdXcXbXvX. . . qXMX0XfXrX] #.W.)./.h.h U.LXLXZXGX4.w 7 oX@XXX",
"@X#Xz.6   6 f 7 f =   Y.^.b n e X.1XeX0XiXkXvXnX .8 @ q vXkXfX4X=.j.)./.a.3.T 7.F.BX(.r.2.t 2 @X$X@X",
"].*XJ.J o 6 r = = = X L.Y.< $ e } 1XeXdXiXuXkXmXnX| @ @ jXcXtXX.%.I.).r.a.<.3 - H.F.{.V.j.y 7 [.$XXX",
"].:XL.t o 7 x + v X = e.L.b < e ..1X8XyXiXiXgXgXnXMX| # 0 hXqXO.#._.HXa.i.T S F >.D.r.<./ M G @X@XXX",
"OX*XJ.6 . * x : 5 f 2   f.W o e } 6X9X9XuXgXgXgXkXbXvX| # hX[ k._.Q.a.r.<.<.|.FXDXDXc.B z $ J ].+XXX",
"*X#X) t o . z 7 5 = s X , 6 : M [ 2X3XyXyXaXaXaXdX0XbXjX@.E.#.Q.).B.p.a.( z.PXJXLXSXCXp.t . Z ].$XXX",
"#XOX$.J 6 X x 7 5 5 + X 8.b ; %.=.4X2X7XpXyXyXaXpXfX0XhX%.! '._.i.u.a.W.A U..XG.BXVXB.1.x . J XX@XXX",
"+X+X$.K z X x : 5   X 7 e.~ 6 M *.*...2X8X8XrXrXrXrXwX' E.Q.(.D.N.N.a.<.& D n. XDXS.i.<.6 : f ].@X$X",
"+X#Xs.c r . x = - s 3 R J.^ $ 9 %.-.5X4X6X3X5X..4X} &.E.'.CXa.D.N.u.<.S a D >.G.(.r.9.I 4 O 5 *X$X$X",
"*X^.K.J @ t J X u u u P.8.L 0 [ 9 &.*.] @.&.%.O.O.E.'.'.Q./.<.B.r.p.:.N.VXKXF.H.m.Z H > t ; i &XOXXX",
"&X@XK.t . % t , a u <.~.^.y 9 *.@.e @.o.o.#.l j.l.l.Q.Q.B.3.W.<.3.<./.SXVXDXZXA.Z 7 r r $ . 0.;X#XXX",
"[.:Xs.% @ w < h u S (.~.L.r @ *.*.@.e e w < x w.J.v.W.i.B.3.h.j k - :.Z.}.VXCXV.A * : . o s 5.@X$XXX",
"].>XQ . r L s p k N.CX(.G > @ %.o.+.e t K ^ L.R 5.5.q.<.9.4.k y.c.>.S :.}.}.b.1._ 6 * X ~ J.T [.@XXX",
"@X:XJ . L K , p u./.|.}.j > y $.K $ $ : I d.( T 5.T S A j a g CXAXAX.Xb.!.P.0.! l B * v P.z.b.@X@XXX",
"#XXXJ t $.r = h V.(.SXN.g * $.c   X & p h A ,.,.<.g <.S S & b. X XVXPX.Xe.R f.V n i i 9.t.z.z.[.@XXX",
"@X$X_ K K : v 5.c.}.IXr.u - W 5 F Z.!.(.6.g 9.g g g c.P.~.a U.(.}.}.}.U.G c b i j u j <.Z z.( [.XXXX",
"XX:XJ.J t x g.v.r.(.GXN.g a , R b.x.(.}./.}.FXGXa :.~.).FX!.7.~.C.A.6.E J J < v - B k j Z D ( ,X@X$X",
"XX$Xs.J ^ 8.R 9.r.|.GX(.:.g ,.P.a.r.C.C.C.VXZXSXCXx.6.W.HX=Xp.3.r.6.T R Q 5 : & j B.W.W.c.p J $X$X$X",
"XX#Xs.x ^ _ 1.9.<.V.CX|./.P.P.W./.C.C.C.C.S.CXKXIXZ.x.n.|.&X1.h B T P G J 5 5 h W.a.B.t.w.I : $XXXXX",
"XX*XJ.x ~ ~ ,.p.3.v./.).).~.y.3.a.a.a./.VXCXVX(..XV.t.5.p.y.R B - d I d X X 3 6.t.v.t.p.~ * r %XXXXX",
"oX*X) v ^ 1.4.4.p.p.y.y.g.9.Y <.a.V.a.~.HX/.i.5.j S ,.5.1.R U Y i * & X p Z p F g r.9.9.h o z `.$XXX",
"oX#X_ x 8.2.8.3.4.,.,.1.1.,.1.9.B.~.v.i.y.Y I I ! d i v R E A G l < z P t.b.:.:.U h R N z ; * `.+XXX",
"oX%XE z 2.1.4.1.1.1.1.2.8.4.1.! 1.3.U R ! v I W ^ t o < v s 5 , $ n L.W.~.V.c.W.g.d z c x o , @X+X@X",
"oX>XE 6 ! ! 4.1.2.2.2.2.2.2.Y B l 1 l N W Q J J O 4 = z z $ ; . $ r v 5.C.N.u.p.1.b @ y r X T [.$X$X",
"oX>XE 6 I B f.2.W ! ! V N W W C z ; m K x t 4 7 7 7 . X . $ n n r c 5 g <.7.y.p.z $ w . $ x ( &X@XXX",
"oXoX_ O O f P b ! H W V W m m c $ r t 4 6 > : 7 t 8 8   + R P.P.d.d.e.P h T _ G 4 $ $ r x J ) ].XXXX",
"oX>XK.J.K.T.I.L.Y.Y.Y.Y.R.R.I.I.K.T.R.T.Y.Y.Y.R.K.T.R.K.T..X|.).^.^.^.^.I.T.^.K.I.K.K.Y.R.I.Y.>X+XXX"
};
