/* XPM */
static char *_db37d804fd54ee4c4170f4536fb3cdf8czPvCUrqd913OOT[] = {
/* columns rows colors chars-per-pixel */
"50 50 254 2 ",
"   c #030202",
".  c #0B0203",
"X  c #02020A",
"o  c #070A07",
"O  c #150705",
"+  c #081307",
"@  c #171507",
"#  c #070714",
"$  c #171616",
"%  c #101117",
"&  c #250604",
"*  c #370303",
"=  c #241606",
"-  c #241718",
";  c #351A11",
":  c #072D15",
">  c #292504",
",  c #382804",
"<  c #3D3704",
"1  c #25261A",
"2  c #35281A",
"3  c #343619",
"4  c #1A1925",
"5  c #081427",
"6  c #251D28",
"7  c #192528",
"8  c #142D31",
"9  c #262829",
"0  c #362A2A",
"q  c #273327",
"w  c #2A2835",
"e  c #362B38",
"r  c #393A37",
"t  c #303630",
"y  c #4E0A0A",
"u  c #69070C",
"i  c #493717",
"p  c #513806",
"a  c #453A38",
"s  c #4E2F30",
"d  c #6C1D24",
"f  c #034E17",
"g  c #035C26",
"h  c #114E30",
"j  c #3B443A",
"k  c #2E4224",
"l  c #03722F",
"z  c #00631C",
"x  c #564909",
"c  c #694704",
"v  c #755602",
"b  c #6D5204",
"n  c #7A6402",
"m  c #72640E",
"M  c #474636",
"N  c #4F4A30",
"B  c #6E5A38",
"V  c #706837",
"C  c #053456",
"Z  c #042D4E",
"A  c #263541",
"S  c #3A3B44",
"D  c #012B5D",
"F  c #473A43",
"G  c #3A4A49",
"H  c #034D79",
"J  c #176749",
"K  c #494848",
"L  c #524846",
"P  c #554A56",
"I  c #495455",
"U  c #585857",
"Y  c #4F504F",
"T  c #655C5B",
"R  c #685D4C",
"E  c #5A6559",
"W  c #57644C",
"Q  c #776446",
"!  c #696750",
"~  c #575A66",
"^  c #49566A",
"/  c #655C68",
"(  c #795E6F",
")  c #5B6666",
"_  c #59687B",
"`  c #646465",
"'  c #676868",
"]  c #6B6975",
"[  c #797878",
"{  c #706F6D",
"}  c #8A0103",
"|  c #950303",
" . c #B70203",
".. c #B00C08",
"X. c #B62114",
"o. c #A41B27",
"O. c #C40401",
"+. c #CC0405",
"@. c #D00607",
"#. c #E90602",
"$. c #F40103",
"%. c #EC1000",
"&. c #CB3932",
"*. c #875D09",
"=. c #886704",
"-. c #976802",
";. c #987802",
":. c #8D730A",
">. c #A77805",
",. c #AD7402",
"<. c #92732B",
"1. c #AC5F19",
"2. c #CB7705",
"3. c #C65412",
"4. c #897549",
"5. c #857979",
"6. c #897769",
"7. c #BC6A68",
"8. c #CC6C6B",
"9. c #068A37",
"0. c #00AB3B",
"q. c #0B924A",
"w. c #02A84B",
"e. c #05B557",
"r. c #0FAF52",
"t. c #07B662",
"y. c #2E9B60",
"u. c #528A77",
"i. c #7D877B",
"p. c #45A77E",
"a. c #02C457",
"s. c #1FCB6E",
"d. c #9C8208",
"f. c #A88802",
"g. c #B48B02",
"h. c #BB8C01",
"j. c #B98808",
"k. c #AD9206",
"l. c #B89306",
"z. c #B68916",
"x. c #AA9219",
"c. c #B69317",
"v. c #A78B18",
"b. c #92832D",
"n. c #B78C28",
"m. c #AA9627",
"M. c #B79527",
"N. c #B59537",
"B. c #AD8E38",
"V. c #BEA00A",
"C. c #C58904",
"Z. c #C79702",
"A. c #C58915",
"S. c #D1990A",
"D. c #C6962E",
"F. c #CFA918",
"G. c #A89A58",
"H. c #B2954B",
"J. c #AFA350",
"K. c #959074",
"L. c #A89968",
"P. c #A89A79",
"I. c #B69C74",
"U. c #B09267",
"Y. c #9EA374",
"T. c #AEA46F",
"R. c #CAA550",
"E. c #C1A16D",
"W. c #0B5693",
"Q. c #306B94",
"!. c #036BB8",
"~. c #1270B2",
"^. c #2D76AF",
"/. c #16639B",
"(. c #757783",
"). c #6B5F87",
"_. c #056AC4",
"`. c #0677C9",
"'. c #1177C9",
"]. c #187FD3",
"[. c #887D85",
"{. c #7C8887",
"}. c #6A8A9F",
"|. c #6DB58B",
" X c #4986B9",
".X c #7292AB",
"XX c #39C681",
"oX c #58D292",
"OX c #4991C0",
"+X c #878887",
"@X c #948C87",
"#X c #969488",
"$X c #968C96",
"%X c #8B9494",
"&X c #959494",
"*X c #9B9B9B",
"=X c #989897",
"-X c #8A918E",
";X c #A99D86",
":X c #A49A96",
">X c #B39791",
",X c #9CA59A",
"<X c #9BA38B",
"1X c #B5A788",
"2X c #A7A599",
"3X c #B6A897",
"4X c #ABAA8F",
"5X c #999CA4",
"6X c #8E99AA",
"7X c #A79EA5",
"8X c #A59AB4",
"9X c #9AA4A7",
"0X c #9EA6B1",
"qX c #A4A4A3",
"wX c #ACABAC",
"eX c #A7A6A7",
"rX c #B5ABA7",
"tX c #A9B6AB",
"yX c #B6B5AB",
"uX c #A9AAB6",
"iX c #B3AAB6",
"pX c #ABB7B8",
"aX c #B3B4B4",
"sX c #BBBCBC",
"dX c #B7B8B9",
"fX c #C3B9B7",
"gX c #C6B5AF",
"hX c #C1B583",
"jX c #B9C3B6",
"kX c #C4C3BA",
"lX c #D0CABC",
"zX c #B7B9C4",
"xX c #AFB5C6",
"cX c #C5BAC2",
"vX c #C9B7CC",
"bX c #B7C4C6",
"nX c #C3C3C3",
"mX c #CBCCCC",
"MX c #C8C7C6",
"NX c #CCCBD4",
"BX c #D3D3D3",
"VX c #DCDBDB",
"CX c #D4D8DA",
"ZX c #CFD2CF",
"AX c #E3DCDA",
"SX c #E7E6DB",
"DX c #D7D8E6",
"FX c #ECDCED",
"GX c #E2E2E2",
"HX c #EAEAEC",
"JX c #FDFEFE",
"KX c #F5F6F7",
"LX c #EEEFF2",
"PX c #DBE2E5",
/* pixels */
"LXwXz.<XeX:X*XSXnX#XVXZX+XmXBX=X4X7XL.M.5.7 7XdXsX2XuXE # K.m.P.0X2X=XDXMXK.ZXCX#XkXGX,X2X7X:XA.4XKX",
"3XM.L.N.h.n.l.;XJ.j.T.~ O % ~ I.z.z.N.[.6 ,XpXrXdX2X' $XT $ 5.H.z.g.T.~ + % ~ E.C.G.1Xg.z.k.z.<XN.2X",
"m.L.n.C.L.2Xc.j.U.rXM a 5X' 1 L 4X,X5.9 9XdXpXeXsX*XU *XeXE $ 6.4X3Xr 9 { $XI G rXG.2.x.eXL.C.B.I.v.",
"A.,XA.T.CXKXrXv.Z.i ~ 5XzXbX,X^ p R.] 1 kX2XzX2XaXqX` =X[ #X$ ] R.i U eXvXaX7XP N V.v.tXLXGXL.c.2Xz.",
"l.P.z.c.yXpXFXyXF.> u &.X.X.8.xXa V pX$ jXqXzX8XdX7XR =X) =X7 dXV j yX|.r.r.p.g y V.pXAXzXrXz.A.<Xh.",
"P.N.;Xg.j.K.HXBXM y .. . . ...8.xX) 1 A vX2XtXeXbX0XT #X~ =Xw $ ).zX|.r.0.w.w.w.f N CXLX6.j.z.L.n.;X",
"HXL.B.P.P.SX[ 9 u  .O. .O. . .O.7.xXj   I jXfX2XaXqXT 5X2Xa   K aX|.t.e.r.w.w.e.w.h 9 (.SX1XL.H.1XDX",
"nXuXj.4XI r X   } @. . .+. .@. .O.8.bXi.~ K iXaXdX7X-X(.t U [.dX|.z + : 9.e.e.w.a.9.X . M G 3Xh.uXjX",
"&XH.U.M U ) +X[ ; | @. .O.} * * u @.&.8.pXW S yXdX,X5.7 Y iX|.s.g 7 / P : l w.e.9.8 5.[ ' U M I.H.=X",
"VXG.L P rXmXzXZX+X; } @.| & X > c y d y 7.xXY K aX+X$ Y gX|.t.g T F s 6.e h a.9.: +XmXmXnXrXY Y L.ZX",
"JXeX+ ,XsXU 3 G wX%Xs d O 7 w 3 <.n V 2 @.7.sXY t % ~ dX|.a.g O t J f |./ : r.I @XiXS q T dX*XX rXJX",
"MXU.% qXwX# r e 0 =XpXt X - @ o i m 4.o.O. .` dXY T dX|.w.N k g f 9.XXi.q 9.y.>X:Xe e r + aX*X- U.NX",
"H.j.O $XcX' F @XG K.lXT o 2 ,   # X 0 }  .* c T.cXyX|.w.a.B r.a.w.s.5.3 9.t.u.kXi.r &XK ) dX*X. g.B.",
"h.G.M K yXbXU L ~ ~ @X:X6 = v , @ p     3.x v 3.dXjXw.e.z g l f p.+Xh q.q.t +X*XU ) K U bXuXK U J.h.",
"j.2XCXU j wXNX~ Y % ` 5X6 = b < , g.p *.Z.c y u tXdXt.l M P   0 [ 0 J J : k *X' O I ~ BX2XP L T.5Xc.",
"g.U.CXhXL I [.tX' o { =X$ 3 p   v >.m n p . u x fXyXJ t fX[.M wXt h u.h 9.y.$X{   { yX[.~ N I.N.H.C.",
"H.g.H.B.3X$ K vXS   i.%Xy O . < F.-.& o p < < :.dXrX$ iXi.: tXsX9 : 9.z w.q.@X(.# j fXI $ 3XN.G.k.N.",
"L.B.M.jXxXe E [ K   { 6Xo.}   c v f.;.O =.-.3.* sXbX% :X+ g u.aX0 - r e h G #X[ # M [ U A iXtXM.H.U.",
"M.Y.eXCX1Xi.K t %Xr { %Xd y m =.= p b % 8 w o.X.8X5X7 [ F 6 o T q K {.+Xr $ ,XE j +Xt F { hXDXiXI.M.",
";XB.L.Y.B.P.DXJXVXq ' 7Xq x Z.Z.Z.x 7 5.>XY.R ! R V V V ;X1Xi.-   + : : + 7 9X( t DXKXFX;XN.;XL.m.P.",
"c.I.N.n.P.;XI.K.FXY ! %X<.S.>.;.c w i.I.g.C.l.C.C.;.;.:.-.g.P.{.e g q.q.: - 9X` U FXK.Y.1XL.x.m.I.M.",
"wXv.P.>Xc.z.v.j.G.q [ 6Xb C.c X 1 ) ;Xh.>.>.;.;.-.= O & & >.h.L./ 6 $ 1 # 6 :X' 7 L.A.m.j.z.;X;XB.wX",
"KXgXM.x.g.P.,XR., 9 8X-X@ c *., *.@ Q Z.;.O & & @ h.@.#.,.;.C.Q : ' $X$XK : -X3Xw < D.qXP.j.c.n.yXLX",
"JXHXeX,XuXiXm.U.t ] sXY y 3.3.u i b.! C.f.-. .%.g.,. .$.*   -.Q q.h o % s y.p.cX] w L.N.tXuX:XwXLXJX",
"LXrX:X2XPXLXlXt 0 ,XdX*X<XeXqX*X2X+XQ =.O ; +.%.>.&  .#.....* S -X0X=X:X:X,X9XyX7X9 e MXKXFX,X:X1XKX",
"4Xn.j.h.;XSXJXS / pXdXfXcXdXdXcXjX8Xr & ..-.@.#.& | +.$.2.; =.B :XsXsXjXsXdXzXaXjXE a JXVX<Xh.z.M.3X",
"c.<X4Xn.l.3Xr ' zXaXeXqXqXeX5X4XtX+XB -.* .. .$...& ..$.2.f.g.Q -XuXqXeXeX7X9XeXwXdX! F 3Xh.c.<X:Xv.",
"h.>XGX3Xc.> ` yXiXB.k.x.z.z.j.z.l.<.! Z.n * +.$.@ >. .$.2.l.C.B ~.~.'.~.C $ @ o K zXiX) , c.iXHX4Xj.",
">Xx.tXLXj R dXxXH.Z.c O i <.h.g.h.<.V C.l.-.O.#.>.j...#.2.k.l.V /._._.C   . 9 w . K zXpXE x FX2Xm.;X",
"x.h.>XG / xXdXF =.b X 6 w 7 b.S.C.v.R C.;.= & * , C.@.$.2.h.C.V !.!.!.Z   9 8 I U   P aXxX' G 2XC.c.",
"Y.I.e W jXiXJ.= . n , (.kX{ t x n.' L.C.z.=.=.=.v > O * @ >.Z.K.] /.`.C - [.{ 0 $ # 5  XrXyX/ 0 <XP.",
"FXj ) yXuXH.2.f.> O   {.$X% i ,.h.V i.U.h.Z.Z.Z.Z.=.=.n =.j.T.6.Q.`.`.Z   j &XK 9 ` o C OXyXtX/ a GX",
"I ' aXxXH.g.g.S., w % ' / o k , c Z.<.[.L.R R V V V 4.4.4.L.5.Q.D 5 8 W.Z = { (.` > # W._. XrXyX' Y ",
"X 2XiXN.C.g.g.k.-.2 X 1 @ % w ).5.@ x b.{ <.<.<.$X6X7 % $ ` Q.D w @ % 5 5 % O K P 5 _.`.!._.^.pXeX  ",
"  qXdXU.j.h.A.g.S.;.>       . E *X] W p v.C.Z.l.kXfX@ w   - 8 G ' S (.@X3 X t I # o H _.!.~.}.sXeXo ",
") r aXpXY.j.j.Z.v x >         o 9 { %XL c C.h.j.sXrX$ 9 j # X #X{ I ~ Y 9 O ` ^   # H !.~..XzXrXr U ",
"8XU a wXpXT.A.v     . , > w S     o r [.U x j.c.dXyX%   $ % X w +XU     . ' ' O # W.`.~..XfX0Xj U 7X",
"mXBXU a aXuXN.v p c c >.d.B ' t     X K ' O A.c.sXdX@ I S o . % a # t 1 K {.2   W.`._.^.fXtXr R BXmX",
"KXJXdXL / 2XU.l.Z.F.B.c v = 6 U 4     + 9 @ ,.Z.jXeX% W ` o   K U M +XS A t # /.].!.~..X9XU P pXJXJX",
"CXCXkXZX% +XbXL.H.4X6XN @ # @ 2 9         @ S.l.fXsXC . 2 A o 1 [ NXT   . # W.6X9X^.}.fX+X% ZXMXZXZX",
"=X&XKXJXU K eXaXuXMXzXE.<., =.-.X   O p p 9 x c.dXdX'.C X 3 5   $ U T $ 5 /..XgXZXiXsXeXK / JXLX=X=X",
"sXnXBXCXBX' P aXqX` 0XxXT.Z.k., o < c l.k.B p A.bXsX~.`.D 5   0 @ X L 0 C .XmX*X' ,XeXY ` ZXGXBXbXcX",
"JXJXeX&XHXJXE U $ @ ) %XfXI.B 4 c S.C.g.h.C.Z.k.yXdX~.!.'._.5 [ A . $ 8 [ nX&XU $ $ Y U JXHX-XwXJXJX",
"GXGXkXdXCXGXmX` 4 xX#Xa :XjXzXT.M.z.g.C.h.g.j.c.kXxX~.!.W.o X 9 t - [ bXjX:Xr %XaX$ ' CXAXVXsXdXGXSX",
"*X=XLXJXiX&XGXJXlX+XHX&XK +X*XzXuXP.m.n.j.h.C.c.gXpX'.!.Z   = 4 +XzXnX:X[.S :XHX-XMXJXGX&XwXJXKX=X=X",
"aXwXGXLXdXwXVXHXcXtXZXJX$X% Y -XeXsXpX3Xn.c.f.A.kXdX~.!.'.w K.fXdX:XK.Y $ &XJXNXeXMXHXVXwXsXHXGXaXaX",
"JXJX2X*XHXJXdX&XVXJXkX#XMXJX2X  r =X%X9XrXtX2Xm.pXxX^.0XiXaX,X=X&Xa   5XJXMX@XmXJXVX#XaXJXHX*XqXJXKX",
"HXHXsXwXGXKXjX2XCXKXmXqXmXKXNXaX5.+ % a 9X,XfXiXsXjXrXjXeX9Xr % o (.pXNXKXmX2XmXLXCXwXsXLXGXeXdXLXHX",
"qXqXHXJXaX*XGXJXbX=XCXJXmX=XMXJXVX&XnXMX$ t &XaXsXdXaX&X9 % MXcX=XVXJXMX=XZXJXBX=XfXJXGX=XaXJXHXqXqX",
"qXqXLXKXaX=XGXJXfX=XBXJXmX=XMXJXVX=XaXJXVX[ % / dXdX` @ {.SXJXdX=XVXJXnX&XmXJXBX=XzXJXGX=XaXKXLXqXqX"
};
