/* XPM */
static char *_8f2de07ff9f4080e16bf5c677f51a2dg9uAQLZ6L6mPvIfB[] = {
/* columns rows colors chars-per-pixel */
"40 40 207 2 ",
"   c #050A07",
".  c #1C1412",
"X  c #1B1B1A",
"o  c #131715",
"O  c #26090E",
"+  c #22190A",
"@  c #361202",
"#  c #16281C",
"$  c #2A2B1D",
"%  c #1C2D2A",
"&  c #1C2928",
"*  c #1E332A",
"=  c #182931",
"-  c #242324",
";  c #232C2B",
":  c #292B2B",
">  c #2C2922",
",  c #362825",
"<  c #2C302F",
"1  c #2B3331",
"2  c #2F3E39",
"3  c #373738",
"4  c #363727",
"5  c #482316",
"6  c #532E25",
"7  c #463229",
"8  c #533630",
"9  c #4F3831",
"0  c #2C453D",
"q  c #58433C",
"w  c #214C45",
"e  c #35434B",
"r  c #384647",
"t  c #3C514E",
"y  c #384F57",
"u  c #334C53",
"i  c #2C565F",
"p  c #3F5254",
"a  c #3B5759",
"s  c #3A5867",
"d  c #3C6567",
"f  c #444746",
"g  c #414E4B",
"h  c #4D4C4C",
"j  c #43424A",
"k  c #544644",
"l  c #5E4F48",
"z  c #5E554C",
"x  c #474E55",
"c  c #435255",
"v  c #4D5852",
"b  c #495757",
"n  c #545C5D",
"m  c #5B5C5C",
"M  c #674B40",
"N  c #7A4B41",
"B  c #71524D",
"V  c #6A5B5B",
"C  c #7B5A5A",
"Z  c #4F605A",
"A  c #50605F",
"S  c #5C605F",
"D  c #6D6158",
"F  c #7A615A",
"G  c #435A66",
"H  c #4A5D66",
"J  c #5B5A61",
"K  c #545F61",
"L  c #435F74",
"P  c #4C6461",
"I  c #44616B",
"U  c #4F646C",
"Y  c #4C6B6D",
"T  c #546B6C",
"R  c #5D6A69",
"E  c #566769",
"W  c #4A6373",
"Q  c #4A6A72",
"!  c #466671",
"~  c #546C73",
"^  c #5A6977",
"/  c #567173",
"(  c #59747C",
")  c #4D7678",
"_  c #656565",
"`  c #646D6C",
"'  c #6C6C6C",
"]  c #776A67",
"[  c #6D736F",
"{  c #7D746B",
"}  c #666C73",
"|  c #63747B",
" . c #697C7B",
".. c #657B79",
"X. c #727472",
"o. c #7E747D",
"O. c #7A7979",
"+. c #8F564F",
"@. c #8F5A54",
"#. c #936E76",
"$. c #827E75",
"%. c #906F6B",
"&. c #A17C74",
"*. c #9A897F",
"=. c #A6847B",
"-. c #BA857B",
";. c #B38178",
":. c #5A7588",
">. c #606C82",
",. c #647C85",
"<. c #6B778B",
"1. c #677B8B",
"2. c #6D7B8D",
"3. c #6A7786",
"4. c #7A7784",
"5. c #697E93",
"6. c #9C7C8B",
"7. c #5D8084",
"8. c #6B8485",
"9. c #738380",
"0. c #688A93",
"q. c #6D8591",
"w. c #7A8C97",
"e. c #788392",
"r. c #7EA2A2",
"t. c #808080",
"y. c #8B8A8D",
"u. c #918785",
"i. c #8E8691",
"p. c #949D9A",
"a. c #9E9F9F",
"s. c #A38689",
"d. c #BC938D",
"f. c #A89490",
"g. c #B19B9E",
"h. c #A78995",
"j. c #B4A296",
"k. c #8C96A2",
"l. c #A896A2",
"z. c #BD9EA4",
"x. c #96A5A8",
"c. c #96A6B3",
"v. c #BBB0AC",
"b. c #B7AEB9",
"n. c #A5B2BA",
"m. c #BEB7BF",
"M. c #BABABA",
"N. c #A6A4A5",
"B. c #DE9187",
"V. c #C09B92",
"C. c #D6A798",
"Z. c #C397A8",
"A. c #CCA5A0",
"S. c #D1ACA6",
"D. c #D8BAA0",
"F. c #C3BBB9",
"G. c #DAB3B6",
"H. c #EDB9A9",
"J. c #FDB0A6",
"K. c #E2AFB6",
"L. c #DAC6BF",
"P. c #C6C2A7",
"I. c #A9B4C5",
"U. c #B5C2C4",
"Y. c #BDC7D2",
"T. c #C8C7CA",
"R. c #DCC9C2",
"E. c #D9C2C7",
"W. c #D9CDD1",
"Q. c #CED9D3",
"!. c #D2D0D4",
"~. c gray86",
"^. c #D7D9D9",
"/. c #CACAD4",
"(. c #E9CAC5",
"). c #FFDEC8",
"_. c #E6D4D1",
"`. c #EDDDDD",
"'. c #E7D6D8",
"]. c #D9E7DA",
"[. c #EEE1D9",
"{. c #C1D0E3",
"}. c #D0DAE4",
"|. c #D8E4E8",
" X c #D3E8F7",
".X c #E8E7E7",
"XX c #F0E1E1",
"oX c #FCECE7",
"OX c #F7EDEB",
"+X c #FCEDEC",
"@X c #FBE3E7",
"#X c #EDF1ED",
"$X c #FDF3ED",
"%X c #F9F8E7",
"&X c #E6ECF5",
"*X c #F4E7F0",
"=X c #ECF2F4",
"-X c #EDFFFF",
";X c #E6F9F7",
":X c #F4F4F4",
">X c #FCF4F5",
",X c #F6F9F5",
"<X c #FEFAF5",
"1X c #F3F4FD",
"2X c #FCF4F9",
"3X c #F5FDFD",
"4X c #FFFEFF",
/* pixels */
"4X4X4X4X4X4X4X4X4X1X2X3X4X3X4X,X3X#X4X4X4X2X4X#X4X4X4X4X4X4X4X4X4X4X4X4X4X4X4X4X",
"4X4X4X4X4X4X4X4X4X2X4X4X3X3X4X2X$Xv.4X4X4X&X.X4X4X4X4X4X4X4X4X4X4X4X4X4X4X4X4X4X",
"4X4X4X4X4X4X4X4X2X4X4X4X<X<X4X@XS.&.`..X-X4X3X4X4X4X4X4X4X4X4X4X4X4X4X4X4X4X4X4X",
"4X4X4X4X4X4X4X4X4X4X4X4X2X4X>XE.B.H.%X,X3X|.4X2X4X4X4X4X4X4X4X4X4X4X4X4X4X4X4X4X",
"4X4X4X4X4X4X4X4X4X4X4X2X<X<X@XZ.J.-.j.].-X;X4X*X4X4X4X4X4X4X4X4X4X4X4X4X4X4X4X4X",
"4X4X4X4X4X4X4X4X4X4X4X3X4X4X[.g.-.8 ] ' U.3X4X2X4X4X4X4X4X4X4X4X4X4X4X4X4X4X4X4X",
"4X4X4X4X4X4X4X4X4X2X4X4X4X4X.XF.M ] T.O.X.Q.4X4X4X4X4X4X4X4X4X4X4X4X4X4X4X4X4X4X",
"4X4X4X4X4X4X4X4X4X3X4X4X3X3X,X^.v ` y.i.l.m.4X.X4X4X4X4X4X4X4X4X4X4X4X4X4X4X4X4X",
"4X4X4X4X4X4X4X4X4X,X4X4X4X4X4XX.i ,.P y r.x.*.C.4X4X4X4X4X4X4X4X4X4X4X4X4X4X4X4X",
"4X4X4X4X4X4X4X4X4X4X4X4X4X2X=Xh I | n n 9.X.&.H.,X4X4X3X4X4X4X4X4X4X4X4X4X4X4X4X",
"4X4X4X4X4X4X4X4X4X4X4X,X4X4X.X: = h C #.6.h.A.).4X4X4X4X4X4X4X4X4X4X4X4X4X4X4X4X",
"4X4X4X4X4X4X4X4X4X4X4X4X4X4X#X3 = 9 %.K.Z.s.s.D.4X4X4X4X4X4X4X4X4X4X4X4X4X4X4X4X",
"4X4X4X4X4X4X4X4X,X4X4X,X4X4X4Xh 0 $ M G.l.o.{ P.4X<X4X4X4X4X4X4X4X4X4X4X4X4X4X4X",
"4X4X4X4X4X4X4X4X4X4X4X4X2X4X4X_ # 4 4 D J n.Q.%X4X3X4X4X4X4X4X4X4X4X4X4X4X4X4X4X",
"4X4X4X4X4X4X4X4X4X4X4X4X3X,X4X' . D q 4 e  X4X>X4X4X4X4X4X4X4X4X4X4X4X4X4X4X4X4X",
"4X4X4X4X4X4X4X4X4X,X4X4X4X4X4XX.O 8 7 E ,. X1X2X,X4X4X4X4X4X4X4X4X4X4X4X4X4X4X4X",
"4X4X4X4X4X4X4X4X4X:X4X4X4X4X,X9.  & U >.2.T.2X4X4X4X4X4X4X4X4X4X4X4X4X4X4X4X4X4X",
"4X4X4X4X4X4X4X4X4X,X4X,X4X4X,X6.# r | <.2.I.1X4X4X4X4X4X4X4X4X4X4X4X4X4X4X4X4X4X",
"4X4X4X4X4X4X4X4X4X4X4X:X4X4X=X_ ; K } 5.2.k.=X4X4X4X4X4X4X4X4X4X4X4X4X4X4X4X4X4X",
"4X4X4X4X4X4X4X4X4X4X4X:X4X4X`.r 1 } U <.^ >.|.3X4X4X4X4X4X4X4X4X4X4X4X4X4X4X4X4X",
"4X4X4X4X4X4X4X4X4X4X4X,X4X4XT.X 1 ` U | U H /.3X4X4X4X4X4X4X4X4X4X4X4X4X4X4X4X4X",
"4X4X4X4X4X4X4X4X4X,X4X2X4X,XF.  1 R R ..U a c. X4X4X4X4X4X4X4X4X4X4X4X4X4X4X4X4X",
"4X4X4X4X4X4X4X4X4X,X4X,X4X:XM.  < E [  .T p 1.{.4X4X3X2X,X4X4X4X4X4X4X4X4X4X4X4X",
"4X4X4X4X4X4X4X4X4X2X4X3X4X:XM.o : v 9.8.~ u G I.4X4X2X:X:X,X4X4X4X4X4X4X4X4X4X4X",
"4X4X4X4X4X4X4X4X4X4X4X4X4X,X~.- X 3 J x.) s ~ w.3X2X>XXX<X2X3X4X4X4X4X4X4X4X4X4X",
"4X4X4X4X4X4X4X4X4X4X4X,X4X4X4X_ , ] V [ Y d I 2.=X,X<X`.4X>X4X3X4X4X4X4X4X4X4X4X",
"4X4X4X4X4X4X4X4X4X4X4X2X,X4X4XO.6 V.C k T ) s 5.^.1X4X`.$X2X4X3X4X4X4X4X4X4X4X4X",
"4X4X4X4X4X4X4X4X4X4X4X3X,X2X4X_ 5 &.@.B X.8.! :.U.1X4X`.XX<X4X3X4X4X4X4X4X4X4X4X",
"4X4X4X4X4X4X4X4X4X,X4X4X4X4X4Xm @ +.+.&.$...Q L x.&X4XXX'.>X4X4X4X4X4X4X4X4X4X4X",
"4X4X4X4X4X4X4X4X4X4X,X4X4X4X2Xf @ 5 N V.{ P H s w.&X4X+X_.>X<X4X4X4X4X4X4X4X4X4X",
"4X4X4X4X4X4X4X4X4X4X4X4X3X:X^.- * > 8 =.D g G W ,.}.4X<X_.$X$X4X4X4X4X4X4X4X4X4X",
"4X4X4X4X4X4X4X4X,X,X4X4X4XOX!.o w 2 , F z g H q.>.}.4X4X_.oXOX<X4X4X4X4X4X4X4X4X",
"4X4X4X4X4X4X4X4X4X4X4X4X4X3Xx.; j 3 e Z t r ~ w.<.T.2X<X(._.4X4X4X4X4X4X4X4X4X4X",
"4X4X4X4X4X4X4X4X4X4X4X4X3X=Xp.; x x K R P Y 8.q.3./.OXR.R.<X4X&X4X4X4X4X4X4X4X4X",
"4X4X4X4X4X4X4X4X4X2X,X4X4X#Xp.1 e c P c w a ,.0.3.b.E.E.oX<X4X3X4X4X4X4X4X4X4X4X",
"4X4X4X4X4X4X4X4X4X4X4X4X4X,Xa.; p c b c g T 0.0._ b.'.OX<X3X=X3X4X4X4X4X4X4X4X4X",
"4X4X4X4X4X4X4X4X4X4X4X#X,X<XN.- e ; : r v T ~ Q 6.}.4XOX4X4X,X3X4X4X4X4X4X4X4X4X",
"4X4X4X4X4X4X4X4X2X4X4X:X4X4XW.' 1 - , , . X b 8.!.2X4X,X4X4X,X<X4X4X4X4X4X4X4X4X",
"4X4X4X4X4X4X4X4X4X3X4X4X4X4X4XW.u.f.f.@.7 k a.|.4X3X=X4X4X,X$X4X4X4X4X4X4X4X4X4X",
"4X4X4X4X4X4X4X4X4X,X4X4X2X2X4X2X$X>X>X(.S._.<X4X3X4X4X1X:X4X3X$X4X4X4X4X4X4X4X4X"
};
