/* XPM */
static char *_c3e7ee21a8249419f32fc768687550abSXlJqu154dpbCXf[] = {
/* columns rows colors chars-per-pixel */
"40 40 178 2 ",
"   c #581D0D",
".  c #4C2215",
"X  c #4F241B",
"o  c #552414",
"O  c #502618",
"+  c #502A1F",
"@  c #5C2B1D",
"#  c #632615",
"$  c #682715",
"%  c #632A15",
"&  c #6D2915",
"*  c #642C1B",
"=  c #6A2E1B",
"-  c #65311D",
";  c #6A311E",
":  c #70311F",
">  c #7A311E",
",  c #552D23",
"<  c #563025",
"1  c #5F3527",
"2  c #5C352B",
"3  c #632F21",
"4  c #643324",
"5  c #6C3524",
"6  c #673824",
"7  c #6D3926",
"8  c #653629",
"9  c #683628",
"0  c #63392E",
"q  c #6D3B2B",
"w  c #723523",
"e  c #7B3724",
"r  c #733A26",
"t  c #7B3A25",
"y  c #723729",
"u  c #733D2B",
"i  c #7A3E2B",
"p  c #653E33",
"a  c #6E3F31",
"s  c #723E30",
"d  c #74412E",
"f  c #7B422E",
"g  c #6C4134",
"h  c #6A4439",
"j  c #744333",
"k  c #7C4433",
"l  c #7D4935",
"z  c #754539",
"x  c #784738",
"c  c #74493C",
"v  c #7D4B3A",
"b  c #734C41",
"n  c #7A4E43",
"m  c #7F5346",
"M  c #833C27",
"N  c #813E2B",
"B  c #83422D",
"V  c #88482F",
"C  c #824633",
"Z  c #8A4732",
"A  c #844935",
"S  c #8C4B36",
"D  c #844C3A",
"F  c #8A4D3A",
"G  c #914A36",
"H  c #934E3A",
"J  c #84513D",
"K  c #8B523E",
"L  c #93533E",
"P  c #9A513D",
"I  c #834F41",
"U  c #845342",
"Y  c #8C5442",
"T  c #865843",
"R  c #8C5946",
"E  c #835649",
"W  c #8A5748",
"Q  c #86594B",
"!  c #8C5A4A",
"~  c #925543",
"^  c #9D5642",
"/  c #935A45",
"(  c #9A5A46",
")  c #955748",
"_  c #935D4A",
"`  c #9B5E4B",
"'  c #865F50",
"]  c #945E51",
"[  c #A15A45",
"{  c #A45E4A",
"}  c #95614D",
"|  c #9B624D",
" . c #8B6153",
".. c #956352",
"X. c #9C6552",
"o. c #9B6956",
"O. c #986758",
"+. c #936A5E",
"@. c #9F6C5B",
"#. c #9F6C59",
"$. c #9D6C5D",
"%. c #9E6D5E",
"&. c #9C6A5A",
"*. c #9E7059",
"=. c #A5654F",
"-. c #A9624E",
";. c #A06753",
":. c #A26652",
">. c #A86753",
",. c #A36A56",
"<. c #A36C57",
"1. c #A06C57",
"2. c #A36A55",
"3. c #A96955",
"4. c #A06D5A",
"5. c #A66D59",
"6. c #A46C5B",
"7. c #A16C5C",
"8. c #A36E5C",
"9. c #A76F5E",
"0. c #A56D5A",
"q. c #AA6D5B",
"w. c #A96E5C",
"e. c #AC6F5C",
"r. c #AA6D5A",
"t. c #B06E59",
"y. c #A7705B",
"u. c #A6725D",
"i. c #A5735E",
"p. c #AA715D",
"a. c #AB725E",
"s. c #AE715C",
"d. c #AB725D",
"f. c #B2725D",
"g. c #A76F60",
"h. c #A27162",
"j. c #A67564",
"k. c #AB7762",
"l. c #AA7661",
"z. c #AE7561",
"x. c #AD7564",
"c. c #AC7463",
"v. c #AD7966",
"b. c #AE7A65",
"n. c #AB7965",
"m. c #AD7C6A",
"M. c #B27764",
"N. c #B37965",
"B. c #B17A66",
"V. c #B47A66",
"C. c #B37A65",
"Z. c #B97C67",
"A. c #BD7A67",
"S. c #B27A69",
"D. c #B57D6A",
"F. c #BA7E6B",
"G. c #B7806C",
"H. c #B1826E",
"J. c #BA816C",
"K. c #B68473",
"L. c #BB8676",
"P. c #BC8573",
"I. c #BD8974",
"U. c #BE8E79",
"Y. c #C38572",
"T. c #C38A76",
"R. c #C98B74",
"E. c #C08D7A",
"W. c #C78E7A",
"Q. c #C48D79",
"!. c #C4937D",
"~. c #D1947F",
"^. c #C49480",
"/. c #CE9581",
"(. c #CC9381",
"). c #C99985",
"_. c #D1A18D",
"`. c #DFAF9B",
/* pixels */
"u a @ 3 5 s s 9 7 j j 5 d d 7 7 g 9 q 9 j s 9 s 1 9 9 @ 9 4 9 q g < , 2 < 2 + < ",
"! ! W U 5 U j ! T R #.T Q.T y.j #.i.Q $.v ' v %.! ] %.E O.x U g +.+.2 b 2 h h p ",
"y y j D u U y u l f l d a.l K l _ o.U ..D %.} o._ x D J ..x u q E Q 0 n 0 2 c g ",
"* x Y ..o.A X.R X.l K } | *.J I.7.#.#.l %.n.L.R U U W } A ! ! n.x 0 E E E g b  .",
"5 A U D ~ i ` _ | V } 1.=.y.J J.G.b.i.d R _ k.l ..i.i./ v k.S.b.U a E E E g c  .",
"s w i k 5 Y y K J J } V G.K } V D _ f / ; f A D | D X.l k D Y D y z @ z 4 4 q @ ",
"N D q.q.S ,.A N.d.d.d./ ~.| G.L _ X./ ~.1.d.d.f.<./ W.s.| k | N.Y &.x #.D Q W z ",
"$ 5 F ~ A ~ C ` V f t V / V r f K i ; K K k D % D r K r ; A D f k s k v 6 9 3 j ",
"i F 6.F.J./ J.<.s.F | Z.H.s.f | | | K f Y.q.N.:.5.p.| d.` d.T.s.D.U 9.o...5 l @.",
"i D ) k K A f A K Y A / =./ / V f C K A K | _ / =.:.2.2.f K d.| 4.k Y v U 5 ! m.",
"X.U Y = J / f G.| y.} L J f I.V _ K 2.| ; / C Y y K | : 2.B Y K i.o.- T k s 9 u ",
"k Y ! D } } R !.} 1.*.} o.| I.G.J./ :.1.L d.| | Y V.J.K /./ :._ o.U.T U._ U d x ",
"j K.m.R u - d 6 J f _ J i.H.d } d./ R K 6.q.` f 5 _ ) 6.D A y.0.} j d v o.E 9 4 ",
"D L.K.K.n.n.`._.).T ).!.U.U.' i.M.T.s./ F.M.S.D ) J.V.W.X./ k.G.H.v j...j.H.x W ",
"c j j v Q q j x v o J T j 6 T l 7 / k y s A U s 5 u D s 6.Y F #.' g g j v  .9 @ ",
"n.x n j m.m.o.n.v H.T T H.l H.} A | D 0.k D C A ` i ) ~ M.P.6.Q.*.*.T v U - O.6 ",
"} l K A } u.R G.} v *.J *.i.T } _ / L K U Y D k U D Y D Y ` ) z./ 0...R _ u o.7 ",
"f K F =.y.1.B.y.!.*.a.H.*.!.T i.J.J.d.A x.T.(...A q.~ ) N ) q.` F * k C l u d } ",
"B [ F | | ( R.V.G.} / y.} H.K K | s.d.d.T.6.6.` x g.X.| A ) A.>.M.A } X./ _ k 9.",
"H t t Z =.f.3.L V L A A A r 6.C V s.V } F F u k D # D 3 : w i C B D 5 u r l D ; ",
"G > [ P H -.=.t.( 3.3.( ` t T.q.5.R.K | A / A X.(.i ) N ) Y N Y f 0.r f D D v.w ",
"P B > V P [ [ [ L t B L ^ S Z i V L V A B A k ) g.I s G i S N Y f J f K D w U u ",
"M P P [ -.^ -.-.f.G H t.A.Y.H H 3.=.>.> | Y.F.:.w ) Y ) N N ` ` K 7 j _ U D j Y ",
"& V G B M B S ( P S Z P ( =.L ( L B ( t L ( ~ ( e ` ` ) ) Y ^ I d.l 5 l y I y _ ",
"V M V L V [ V t f S | f V A | L $ Z & ) B t H A I N ) i ~ ) N i - U d - d l 4.5 ",
"P H f L L =./ V F F =.L L f ` | i ` N ) L A f./ ` G ` I ) g.I Y k i.R ! _ l 4.u ",
"% r % r r r V d C 5 i D k d f A A ~ ~ Z S t F > : N Y i 3 i : s d J l j v 6 v q ",
"L r l G.H.f K H.<.| D 0.R y.| / g.{ F.` :.{ L V S Y.F.S.~ s 7.x.} d ! l U ..J  .",
"J r f K V T f V ) F d D s I k i ~ A F F K S K K B | <.| ) I ) ] _ x o.v E } s z ",
"J } J l - H.J l ] C k k ~ C I F y C & ) V r L V t = ` d Y ] s n q x U j d 4 9 @ ",
"V f r J - f r J I A s y ) I D D k F i ` L V L B / f X.K _ c.I O.J O.R J v q E s ",
"6 r 6 - r f / r y ] N y y G y i w = i y : f t B F f # * 5 j 7 k j k j 6 q 9 s 8 ",
"d J r 7 ~ Y :.` D ` >.I : N f.` F f | <.s.=.f =.y.1.6 L L K A A K ~ F : I ) ] I ",
"- f - 7 C y k i y w C i $ N N N d l K A / l l V } V f t = t % S V K L w N C ] ] ",
"- 7 ; J I A Y ~ c.D >.` N ) y Y r / R f / f / l l V =.R A y.D J i A D * y y s 5 ",
"@ - @ d 4 y s s ~ * I S N N : I ; K A f R f T t l f f T l J J J ~ Y / y I s s 3 ",
"- 6 3 9 @ 5 s y y 3 i y i   # y 5 5 ; 5 k 5 * * l f d j % - j v = 5 q o 3 . , , ",
"1 q a q s I I I s I ] ] g.W x.g.q._ / _ X._ j ! v } H.T m *.*.T 9 I ..E I a n ' ",
"@ 8 8 @ 4 8 8 s s I y s z s I s x i u w x 7 3 9 d g g g c g j j 1 4 4 4 , O X , ",
"a j c 8 a 9 a I W W 9 s s ) I s v F _ x ] D W I v *.j v c . h 1 O.n . O , p , , "
};
