/* XPM */
static char *d31237555ec84a2fce7a7c16f6fdfd71Evpxfyu2ztey5aUw[] = {
/* columns rows colors chars-per-pixel */
"50 50 170 2 ",
"   c #0D120D",
".  c #0E1615",
"X  c #121612",
"o  c #141A15",
"O  c #1A1D17",
"+  c #151C1B",
"@  c #1A1E1B",
"#  c #17201D",
"$  c #1D221D",
"%  c #21251E",
"&  c #161D22",
"*  c #1A1F23",
"=  c #181F29",
"-  c #1C2325",
";  c #1F2827",
":  c #1E252B",
">  c #212624",
",  c #242A26",
"<  c #22262C",
"1  c #242A2D",
"2  c #292E2B",
"3  c #2E3427",
"4  c #2C322D",
"5  c #31352E",
"6  c #353B2D",
"7  c #222630",
"8  c #242B32",
"9  c #292E32",
"0  c #272E38",
"q  c #2C3233",
"w  c #2F3833",
"e  c #2C3439",
"r  c #313634",
"t  c #353A35",
"y  c #393C37",
"u  c #33363A",
"i  c #353A3B",
"p  c #3A3D3B",
"a  c #3A4237",
"s  c #37403C",
"d  c #3C423C",
"f  c #41453F",
"g  c #42483C",
"h  c #333A40",
"j  c #3B3D40",
"k  c #3D4343",
"l  c #3F4845",
"z  c #424643",
"x  c #444A45",
"c  c #494D46",
"v  c #454B49",
"b  c #494E4B",
"n  c #47504F",
"m  c #4C524C",
"M  c #51554E",
"N  c #52584D",
"B  c #4D5451",
"V  c #4E5850",
"C  c #525653",
"Z  c #555A54",
"A  c #585D56",
"S  c #565C59",
"D  c #5A5E5A",
"F  c #5A6056",
"G  c #576159",
"H  c #5D625C",
"J  c #60635E",
"K  c #646A5E",
"L  c #5E6462",
"P  c #626661",
"I  c #656A64",
"U  c #696C66",
"Y  c #62676A",
"T  c #666C68",
"R  c #656C68",
"E  c #696F6B",
"W  c #6A6E69",
"Q  c #677168",
"!  c #6D726C",
"~  c #70756E",
"^  c #73796F",
"/  c #6F7572",
"(  c #6E7472",
")  c #707770",
"_  c #727672",
"`  c #757A74",
"'  c #787D77",
"]  c #787D75",
"[  c #737778",
"{  c #767A79",
"}  c #7A7E79",
"|  c #7B8176",
" . c #7D827C",
".. c #80857E",
"X. c #858B7F",
"o. c #7D8381",
"O. c #828682",
"+. c #858A84",
"@. c #888D86",
"#. c #868C89",
"$. c #8A8E89",
"%. c #8C918B",
"&. c #91958E",
"*. c #949A8E",
"=. c #8F9591",
"-. c #939691",
";. c #959A95",
":. c #9A9B96",
">. c #979C98",
",. c #9B9E9A",
"<. c #9AA096",
"1. c #9DA29B",
"2. c #9DA29C",
"3. c #A1A49E",
"4. c #9FA4A0",
"5. c #A2A5A1",
"6. c #A5A9A4",
"7. c #A9ACA6",
"8. c #A6AAA9",
"9. c #ABAEAA",
"0. c #ADB2AC",
"q. c #B1B5AF",
"w. c #B3B9AF",
"e. c #B3B6B1",
"r. c #B6BAB4",
"t. c #B8BDB7",
"y. c #BBBEB9",
"u. c #BEC2BC",
"i. c #C1C3BE",
"p. c #C3C6C1",
"a. c #C5CAC4",
"s. c #C8CDC7",
"d. c #CCCDC9",
"f. c #CED0CC",
"g. c #D2D3CE",
"h. c #D2D6D1",
"j. c #D8D9D4",
"k. c #DCDEDB",
"l. c #E1E3DE",
"z. c #E3E4E1",
"x. c #EBECED",
"c. c #E4E9E3",
"v. c #EEF1EE",
"b. c #EDEEF2",
"n. c #EEF2F3",
"m. c #EEF2F5",
"M. c #EFF3F6",
"N. c #EEF3F6",
"B. c #EFF2F5",
"V. c #F0F4F7",
"C. c #F2F3F3",
"Z. c #F8F6F7",
"A. c #F7F9F6",
"S. c #F8FAF7",
"D. c #F1F5F8",
"F. c #F6F7F9",
"G. c #F6FAFB",
"H. c #F7FCF8",
"J. c #FBFBFB",
"K. c #FDFFFC",
"L. c #FEFFFD",
"P. c #FFFFFD",
"I. c #FDFFFE",
"U. c #FDFEFF",
"Y. c #FCFFFF",
"T. c #FEFFFF",
"R. c white",
"E. c #FEFEFE",
"W. c #FDFDFD",
"Q. c #FEFEFE",
/* pixels */
"L.L.Y.Y.N.u 8 8 8 ; k ; ; 2 4 % 2 ; 9 1 q 1 1 9 1 9 - 9 9 1 1 9 2 2 , k s ; 8 : 8 8 8 : h Z.L.L.L.L.",
"L.L.Y.Y.N.u : 8 h e 9 l l ; y 5 ; y v - 9 i 1 9 < 1 8 < < 1 i < 2 2 s l 9 - 8 0 7 8 8 1 h D.L.L.L.L.",
"L.K.L.Y.N.i 8 8 8 9 l n n a w 3 v v z < v e 1 2 t B 1 - 9 9 * u 4 4 S L l w 8 : 7 8 8 1 u D.L.L.L.L.",
"L.K.L.Y.N.i 1 1 : 8 l i y x t s p [ b l i l ( r 9 i i b Y i 1 k Q H R L l e - : 7 8 1 1 h D.L.L.L.L.",
"L.L.L.L.N.e < < 1 1 2 Z J c m M S T 4.G q l / v 4 k i Y o.S i P n N x 2 ; ; : 0 7 8 7 : i D.L.L.L.L.",
"L.L.L.Y.N.e < < 1 - 1 L ! Z p z C y Z ! G w  .L L k z L k b L i l | Q s ; : : - : 7 : ; u D.L.L.L.L.",
"L.L.L.L.n.r , < 1 * , q p c 2 z L G $ ^ m I x d 4 ; y w B T #.k d L o.l + ; 8 7 7 8 : : u D.Y.L.L.L.",
"L.L.L.L.n.t < < * 9 @ 2 9 y c J | o.Z H G I 4 s Q o.m T z 2./ i d l { V & ; : - : 7 - : e D.Y.L.L.L.",
"L.J.W.J.G.q i 2 u 1 > > <   O m @.1.! f ] H ] d x 2.t Z t i  .y I , x w ; ; & : : 7 - < u D.L.L.L.L.",
"L.L.W.L.x.9 [ B z B - 1 W D J ..&.W f 3 ..W } ! y  .! p 3 C ;.S Q V ; , . 9 0 - 7 7 < - u b.L.L.L.L.",
"Z.L.W.W.Z.L C v Z A t , D O.$._ I m y M ]  .Q >.) M ) H v S k } | L , < 2 : - : : 7 < < u m.L.L.L.L.",
"W.L.J.W.W.b 9 >.q d p X y M c [ I t +.0.a I 4.0.5.0. .&. .! P _ >.| Z w - ; 0 8 7 8 7 : u N.L.L.L.L.",
"L.W.L.W.J.C E 9.W , 4 s J _ J U %.N ^ ;.1.C x  .L 6.2._ / I 5.[ Q I n L - ; 0 - 7 8 7 : u B.L.L.L.L.",
"J.W.L.W.D.9.W D 9.P s m O.6.$.O ;.u.;.s ' +. .@.E j $.I H S D A s 6.C O.o.+ : e 7 8 8 1 h C.W.L.L.L.",
"W.W.W.W.C.5., _ s.6.=.+.} -.,.2 @.1.1.` e.c.r.} $._ 4.>.L k r B Q ` =.L l h - 7 8 8 8 1 h B.W.L.L.L.",
"W.W.W.J.L._ y 0.y.q.-.-.e.[ D ,.a.x p a +.$.o.} #.O.} L E O.b A G G k i l l ; 8 7 0 8 1 u D.L.L.L.L.",
"L.W.W.J.Z.J @.p.9.7.:...5.y C i.&.J H +.! o 6 t % 4  .A x A z d g X.F a G Z + : 8 8 < < u C.W.L.L.L.",
"L.W.W.J.Z.5...5.e.U D U U -...] @ K 1...u.$.K I x , I 2.! W J a F N N F V 1 9 1 8 1 < < u b.L.W.L.L.",
"J.L.J.J.Z.P O :.:.@.U $._ M z M 3  .^ Z @.%.| I Z $ y t.+.! ! m F F I #.2 2 : : 7 < < 1 u b.L.L.L.L.",
"L.W.Z.J.Z.D J -...7.] M O.j C J D %.~ ] C g W ! ^ z X ^ >.X.! m N c 1.F l * 8 : < < < < u B.L.L.L.L.",
"L.L.L.W.Z.:.e.:.C y :.3.U J 9.j ;.>. .@.:.K C m u.w.I m %. .] W M d I x 0 8 & 0 = 7 < > u b.L.L.L.L.",
"G.W.L.L.x.e.:.&.$.:.@.i.e.:.i.:.;.r.[ W O._  .) F <.;.m ^ !  .` m d d v < : 8 = 7 < < < u b.L.L.L.L.",
"W.J.L.L.x.d...U i.i...e.U z O.D % ] P Q W Q ) J ` *. .g M I ] W m v p k < ; 8 = 7 7 = < u C.J.W.L.L.",
"W.W.D.L.x.9.y U d.i.$.5.O.y D D ! ;.&.c A C Z  .@.;.~ H W ..^ H H z 2 - 8 8 & 0 7 7 < < u x.W.W.L.L.",
"L.W.L.D.L.i.7.r.d.g.d.7.:.J U $.x v ! z d I J ! ^ &.! ^ X.@.I F I z 2 < 2 8 7 : 7 7 < < u C.L.L.L.L.",
"L.L.L.W.J._ i.d.7.~ @.i.i.:.$...>.H I { ^ +.%. .6...@.3.%.F ) I H x w 2 1 : 7 0 7 7 < 2 i C.W.L.L.L.",
"G.G.J.L.z.U e.g.:.c y  .y.9.@.U -.0._ E W F ..u.7.%.@.i.F F ..! F m t > 1 8 7 8 7 9 7 < i C.W.L.L.L.",
"W.L.W.L.C.3.p.f.p.3.U ! 3...A ! _ ;.;.,.A , Z I ' +.H %.| | ^ Q H m 5 ; 1 9 < : 7 9 7 7 i C.W.L.L.L.",
"W.J.J.W.C.z ! -.:.] U O.-.P t y B [ $.6.>.z f Q A @.*.<.| | X.K K F g 3 > > < 9 7 9 7 7 j C.W.W.L.L.",
"W.G.W.W.Z.A y C 5 O % c Z M y > - > z P ' z r A ! !  .*.! ~ *.X.@.] I m 9 < < > 7 9 7 < u C.W.W.L.L.",
"L.L.W.C.C.z.:.U g M y 2 O $ % 5 i q x D ! P t $ g c ^ @.w.N 3 g 6 3 a f 2 1 u 7 < 2 < < u C.L.L.L.L.",
"W.L.W.J.Z.y.j.g.d.i.9.5._ m 2 > 1 4 2 4 s A z x 4 6 t N ^ <.F % 3 6 H P y > 7 > < < < < i B.L.L.L.L.",
"L.J.L.J.C.f.5.g.k.z.d.t.P 3.&.P w - ; s L |  .n ; 2 x Q _ o.[ d D ^ s J w , < ; e 9 u 1 u x.L.W.L.L.",
"W.L.J.J.W.m 2 ~ e.C $.5.+.6.$...G l V R R s G V 2 a H H P k A D ] A m I 4 + 4 - < ; > * q b.L.L.L.L.",
"J.L.K.K.J.u X @ D 2 D 2 f 6.3.] ) | ) s G G n s y T 8.%.O.[ 8.>.' $ $ z b - ; k l k j 9 u b.L.W.L.L.",
"L.L.K.J.z._ c 5 $.9...y ! 6.3.[ =.>.L w l s l ; + i ( >.,.{ [ E z , 4 o n G n i q i k e i x.L.L.L.L.",
"L.Z.L.L.L.q.:.5.r.u.e.) 3 4 u.t.) k V w $ # 1 w t q o q D 2 X p m + q e m i & : @ < 9 1 p B.W.W.L.L.",
"L.W.J.J.J.5.,.D _ 0.a.G O $ %.I 2 o # 4 4 k H p r k 4 # v q , 2 C a y q z k - - 1 9 9 - z Z.W.W.L.L.",
"W.W.L.A.A.O.&.z X W h.6. . . .$ # 4 L O.o.@.l @ 4 ; 2 4 2 2 i w i z < o q k e < 9 9 1 - j Z.W.W.L.L.",
"L.L.J.L.C.z Z $.$.5.p.p.u.f.2.I Q <.e.%.w v x w < 4 < k < q < ; q 2 2 q : q n 8 8 u u 8 z C.W.L.L.L.",
"L.L.J.K.b.C % :.9.-.,.t.q.t.t.p.a.0.2. .V l k e q e 2 w e ; s q 2 9 9 9 1 1 q e 1 1 9 < j b.J.W.L.L.",
"L.L.K.J.Z.O.P C j O Z $.U I %.0. .z m Q I Q B k # 1 ; w e : k e 9 9 q 9 8 1 8 9 1 1 9 < j C.W.W.L.L.",
"L.W.J.J.Z.U J 5 U [  .f o $ A r.H c @...I ! 2 w w e ; 8 8 8 k 8 1 9 e q 9 8 7 7 7 8 9 < j B.L.L.L.L.",
"L.L.J.Z.C.c D _ } D $.$.^ [ %.2.u.O.C ) L o.L 4 l w : ; 8 2 e ; < 9 9 q 9 9 8 8 1 8 2 < j b.L.L.L.L.",
"W.L.L.J.J.J b _ r p ^ M d ..1.A I %.;.d x p v r < > 1 8 8 ; 8 : 1 < 1 9 0 9 7 7 < < 7 < u B.J.W.L.L.",
"W.J.L.L.J.U 2 2 x %.$.z m ! m $ t ! m 1.4./ B G 2 ; ; 1 : ; 8 8 9 < < 7 9 9 7 7 7 < 2 - i B.W.W.L.L.",
"L.J.J.L.x.D , 4 +.5.5.6.] , X y ^ y x W b W v t h 2 : - : 8 : : 2 7 < < 7 < 7 < < 7 7 - u b.W.L.L.L.",
"J.L.L.K.Z.C % 9 C _ A x t m ` | %.o.%.4 O s ; - 2 ; : : : 8 : 8 < 7 9 1 7 = < < < < 1 * u b.L.L.L.L.",
"L.L.L.L.x.C @ - e 9 - . s ! | Z 5 q n l m V V l q - : : : 8 ; 8 < < < : : ; : : ; ; : ; u N.W.L.L.L.",
"W.W.L.L.J.G 9 q : 2 q e G ' H , 2 w H Q Q Q G V s 2 8 0 8 0 8 0 9 9 8 9 8 9 8 8 8 0 9 8 i D.L.L.L.L."
};
